# xmcd
# Copyright (C) 1995-1998 Ti Kan
#
# Track frame offsets:
#       150
#       17524
#       33066
#       49374
#       65412
#       85666
#       100671
#       118352
#       132155
#       148324
#       165544
#       184284
#       200820
#       216312
#       230936
#       244561
#       260739
#       276559
#
# Disc length: 3916 seconds
#
# Revision: 17
# Processed by: cddbd v1.5.1PL0 Copyright (c) Steve Scherf et al.
# Submitted via: CD-Transfer v1.0
#
DISCID=190f4a12
DTITLE=Ozomatli - Euro Express 576
DYEAR=04
DGENRE=
TTITLE0=Perdoname
TTITLE1=Quiero Ser Tuya
TTITLE2=Todo Me Recuerda A Ti
TTITLE3=Amor Mio
TTITLE4=Algo Mas
TTITLE5=Si Pruebas Una Vez
TTITLE6=Son De La Loma (Reggaeton Remix)
TTITLE7=Mi Senora
TTITLE8=Castigame
TTITLE9=Ven Damelo
TTITLE10=Si Pudiera
TTITLE11=Trampa De Cristal
TTITLE12=Pastillas De Freno
TTITLE13=Enes
TTITLE14=Brujeria
TTITLE15=Esto Debe Ser Amor
TTITLE16=Al Diablo
TTITLE17=Te Estoy Buscando
EXTD=
EXTT0=
EXTT1=
EXTT2=
EXTT3=
EXTT4=
EXTT5=
EXTT6=
EXTT7=
EXTT8=
EXTT9=
EXTT10=
EXTT11=
EXTT12=
EXTT13=
EXTT14=
EXTT15=
EXTT16=
EXTT17=
PLAYORDER=
